<!-- Generated by IcoMoon.io -->
<svg version="1.1" xmlns="http://www.w3.org/2000/svg" width="180" height="180" viewBox="0 0 180 180">
<title>calendar</title>
<path d="M9 36c0-9.9 8.1-18 18-18h126c9.941 0 18 8.059 18 18v0 126c0 9.941-8.059 18-18 18v0h-126c-9.941 0-18-8.059-18-18v0-126zM27 54v108h126v-108h-126zM45 0h18v18h-18v-18zM117 0h18v18h-18v-18zM45 81h18v18h-18v-18zM45 117h18v18h-18v-18zM81 81h18v18h-18v-18zM81 117h18v18h-18v-18zM117 81h18v18h-18v-18zM117 117h18v18h-18v-18z"></path>
</svg>
