<!-- Generated by IcoMoon.io -->
<svg version="1.1" xmlns="http://www.w3.org/2000/svg" width="180" height="180" viewBox="0 0 180 180">
<title>currency-dollar</title>
<path d="M90 180c-49.706 0-90-40.294-90-90s40.294-90 90-90v0c49.706 0 90 40.294 90 90s-40.294 90-90 90v0zM99 135h9c14.912 0 27-12.088 27-27s-12.088-27-27-27v0h-36.090c-4.971 0-9-4.029-9-9s4.029-9 9-9v0h54.090v-18h-27v-18h-18v18h-9c-14.912 0-27 12.088-27 27s12.088 27 27 27v0h36c4.971 0 9 4.029 9 9s-4.029 9-9 9v0h-54v18h27v18h18v-18z"></path>
</svg>
