<?xml version="1.0" standalone="no"?><!-- Generator: Gravit.io --><svg xmlns="http://www.w3.org/2000/svg" xmlns:xlink="http://www.w3.org/1999/xlink" style="isolation:isolate" viewBox="3 15.57 982.196 362.239" width="982.196" height="362.239"><path d=" M 437.191 335.82 L 354.009 335.82 L 354.009 206.072 L 435.201 206.072 L 435.201 230.748 L 383.262 230.748 L 383.262 256.817 L 427.44 256.817 L 427.44 281.294 L 383.262 281.294 L 383.262 311.144 L 437.191 311.144 L 437.191 335.82 Z  M 481.926 335.82 L 452.673 335.82 L 452.673 237.116 L 476.553 237.116 L 478.543 249.653 L 479.339 249.653 L 479.339 249.653 Q 485.508 243.683 493.269 239.206 L 493.269 239.206 L 493.269 239.206 Q 501.03 234.728 510.98 234.728 L 510.98 234.728 L 510.98 234.728 Q 527.099 234.728 534.362 245.374 L 534.362 245.374 L 534.362 245.374 Q 541.626 256.021 541.626 274.528 L 541.626 274.528 L 541.626 335.82 L 512.373 335.82 L 512.373 278.309 L 512.373 278.309 Q 512.373 267.563 509.487 263.583 L 509.487 263.583 L 509.487 263.583 Q 506.602 259.603 500.234 259.603 L 500.234 259.603 L 500.234 259.603 Q 494.662 259.603 490.682 262.091 L 490.682 262.091 L 490.682 262.091 Q 486.702 264.578 481.926 269.155 L 481.926 269.155 L 481.926 335.82 Z  M 601.286 314.328 L 601.286 314.328 L 601.286 314.328 Q 610.838 314.328 617.405 305.373 L 617.405 305.373 L 617.405 264.976 L 617.405 264.976 Q 613.624 261.394 609.345 260.001 L 609.345 260.001 L 609.345 260.001 Q 605.067 258.608 601.087 258.608 L 601.087 258.608 L 601.087 258.608 Q 594.122 258.608 588.749 265.374 L 588.749 265.374 L 588.749 265.374 Q 583.376 272.14 583.376 286.07 L 583.376 286.07 L 583.376 286.07 Q 583.376 314.328 601.286 314.328 Z  M 593.724 338.208 L 593.724 338.208 L 593.724 338.208 Q 575.416 338.208 564.371 324.477 L 564.371 324.477 L 564.371 324.477 Q 553.327 310.746 553.327 286.468 L 553.327 286.468 L 553.327 286.468 Q 553.327 262.19 565.964 248.459 L 565.964 248.459 L 565.964 248.459 Q 578.6 234.728 594.321 234.728 L 594.321 234.728 L 594.321 234.728 Q 602.48 234.728 608.052 237.514 L 608.052 237.514 L 608.052 237.514 Q 613.624 240.3 618.599 245.076 L 618.599 245.076 L 617.405 229.952 L 617.405 196.321 L 646.658 196.321 L 646.658 335.82 L 622.778 335.82 L 620.788 326.069 L 619.992 326.069 L 619.992 326.069 Q 614.818 331.243 607.853 334.725 L 607.853 334.725 L 607.853 334.725 Q 600.888 338.208 593.724 338.208 Z  M 679.055 222.589 L 679.055 222.589 L 679.055 222.589 Q 671.692 222.589 666.916 218.311 L 666.916 218.311 L 666.916 218.311 Q 662.14 214.032 662.14 207.266 L 662.14 207.266 L 662.14 207.266 Q 662.14 200.5 666.916 196.321 L 666.916 196.321 L 666.916 196.321 Q 671.692 192.142 679.055 192.142 L 679.055 192.142 L 679.055 192.142 Q 686.617 192.142 691.293 196.321 L 691.293 196.321 L 691.293 196.321 Q 695.97 200.5 695.97 207.266 L 695.97 207.266 L 695.97 207.266 Q 695.97 214.032 691.293 218.311 L 691.293 218.311 L 691.293 218.311 Q 686.617 222.589 679.055 222.589 Z  M 693.781 335.82 L 664.528 335.82 L 664.528 237.116 L 693.781 237.116 L 693.781 335.82 Z  M 740.705 335.82 L 711.452 335.82 L 711.452 237.116 L 735.332 237.116 L 737.322 249.653 L 738.118 249.653 L 738.118 249.653 Q 744.287 243.683 752.048 239.206 L 752.048 239.206 L 752.048 239.206 Q 759.809 234.728 769.759 234.728 L 769.759 234.728 L 769.759 234.728 Q 785.878 234.728 793.141 245.374 L 793.141 245.374 L 793.141 245.374 Q 800.405 256.021 800.405 274.528 L 800.405 274.528 L 800.405 335.82 L 771.152 335.82 L 771.152 278.309 L 771.152 278.309 Q 771.152 267.563 768.266 263.583 L 768.266 263.583 L 768.266 263.583 Q 765.381 259.603 759.013 259.603 L 759.013 259.603 L 759.013 259.603 Q 753.441 259.603 749.461 262.091 L 749.461 262.091 L 749.461 262.091 Q 745.481 264.578 740.705 269.155 L 740.705 269.155 L 740.705 335.82 Z  M 854.692 286.866 L 854.692 286.866 L 854.692 286.866 Q 860.463 286.866 864.343 282.687 L 864.343 282.687 L 864.343 282.687 Q 868.224 278.508 868.224 270.349 L 868.224 270.349 L 868.224 270.349 Q 868.224 262.588 864.343 258.509 L 864.343 258.509 L 864.343 258.509 Q 860.463 254.429 854.692 254.429 L 854.692 254.429 L 854.692 254.429 Q 848.921 254.429 845.04 258.409 L 845.04 258.409 L 845.04 258.409 Q 841.16 262.389 841.16 270.349 L 841.16 270.349 L 841.16 270.349 Q 841.16 278.508 845.04 282.687 L 845.04 282.687 L 845.04 282.687 Q 848.921 286.866 854.692 286.866 Z  M 852.503 377.809 L 852.503 377.809 L 852.503 377.809 Q 835.19 377.809 823.15 371.839 L 823.15 371.839 L 823.15 371.839 Q 811.111 365.869 811.111 352.735 L 811.111 352.735 L 811.111 352.735 Q 811.111 340.795 825.24 332.835 L 825.24 332.835 L 825.24 332.039 L 825.24 332.039 Q 821.459 329.452 818.772 325.472 L 818.772 325.472 L 818.772 325.472 Q 816.086 321.492 816.086 315.323 L 816.086 315.323 L 816.086 315.323 Q 816.086 309.95 819.27 304.975 L 819.27 304.975 L 819.27 304.975 Q 822.454 300 827.23 296.816 L 827.23 296.816 L 827.23 296.02 L 827.23 296.02 Q 822.056 292.438 817.977 285.672 L 817.977 285.672 L 817.977 285.672 Q 813.897 278.906 813.897 270.349 L 813.897 270.349 L 813.897 270.349 Q 813.897 252.638 826.334 243.683 L 826.334 243.683 L 826.334 243.683 Q 838.772 234.728 854.692 234.728 L 854.692 234.728 L 854.692 234.728 Q 863.448 234.728 870.015 237.116 L 870.015 237.116 L 906.034 237.116 L 906.034 258.409 L 890.313 258.409 L 890.313 258.409 Q 893.497 263.782 893.497 271.344 L 893.497 271.344 L 893.497 271.344 Q 893.497 288.458 882.253 296.517 L 882.253 296.517 L 882.253 296.517 Q 871.01 304.577 854.692 304.577 L 854.692 304.577 L 854.692 304.577 Q 848.921 304.577 842.752 302.587 L 842.752 302.587 L 842.752 302.587 Q 839.17 305.572 839.17 309.95 L 839.17 309.95 L 839.17 309.95 Q 839.17 313.731 842.553 315.522 L 842.553 315.522 L 842.553 315.522 Q 845.936 317.313 854.095 317.313 L 854.095 317.313 L 870.015 317.313 L 870.015 317.313 Q 888.323 317.313 897.974 323.184 L 897.974 323.184 L 897.974 323.184 Q 907.626 329.054 907.626 342.387 L 907.626 342.387 L 907.626 342.387 Q 907.626 357.71 892.8 367.759 L 892.8 367.759 L 892.8 367.759 Q 877.975 377.809 852.503 377.809 Z  M 857.08 359.501 L 857.08 359.501 L 857.08 359.501 Q 866.831 359.501 873.298 356.018 L 873.298 356.018 L 873.298 356.018 Q 879.766 352.536 879.766 347.362 L 879.766 347.362 L 879.766 347.362 Q 879.766 342.785 875.885 341.193 L 875.885 341.193 L 875.885 341.193 Q 872.005 339.601 864.642 339.601 L 864.642 339.601 L 854.493 339.601 L 854.493 339.601 Q 845.339 339.601 840.563 338.407 L 840.563 338.407 L 840.563 338.407 Q 835.19 343.183 835.19 348.158 L 835.19 348.158 L 835.19 348.158 Q 835.19 353.73 841.259 356.616 L 841.259 356.616 L 841.259 356.616 Q 847.329 359.501 857.08 359.501 Z  M 944.6 338.208 L 944.6 338.208 L 944.6 338.208 Q 934.849 338.208 924.501 334.427 L 924.501 334.427 L 924.501 334.427 Q 914.153 330.646 906.79 324.477 L 906.79 324.477 L 919.924 306.169 L 919.924 306.169 Q 933.655 316.517 945.396 316.517 L 945.396 316.517 L 945.396 316.517 Q 957.933 316.517 957.933 308.159 L 957.933 308.159 L 957.933 308.159 Q 957.933 303.184 951.664 300.398 L 951.664 300.398 L 951.664 300.398 Q 945.396 297.612 937.834 294.627 L 937.834 294.627 L 937.834 294.627 Q 928.879 291.244 920.322 284.478 L 920.322 284.478 L 920.322 284.478 Q 911.765 277.712 911.765 265.573 L 911.765 265.573 L 911.765 265.573 Q 911.765 251.842 922.113 243.285 L 922.113 243.285 L 922.113 243.285 Q 932.461 234.728 949.575 234.728 L 949.575 234.728 L 949.575 234.728 Q 960.918 234.728 969.475 238.609 L 969.475 238.609 L 969.475 238.609 Q 978.032 242.489 984.4 247.265 L 984.4 247.265 L 971.266 264.777 L 971.266 264.777 Q 965.893 260.996 960.719 258.707 L 960.719 258.707 L 960.719 258.707 Q 955.545 256.419 950.371 256.419 L 950.371 256.419 L 950.371 256.419 Q 939.227 256.419 939.227 264.18 L 939.227 264.18 L 939.227 264.18 Q 939.227 268.956 945.097 271.444 L 945.097 271.444 L 945.097 271.444 Q 950.968 273.931 958.53 276.717 L 958.53 276.717 L 958.53 276.717 Q 967.883 280.1 976.539 286.468 L 976.539 286.468 L 976.539 286.468 Q 985.196 292.836 985.196 306.368 L 985.196 306.368 L 985.196 306.368 Q 985.196 319.9 974.848 329.054 L 974.848 329.054 L 974.848 329.054 Q 964.5 338.208 944.6 338.208 Z  M 408.137 182.988 L 408.137 182.988 L 408.137 182.988 Q 391.62 182.988 377.988 175.426 L 377.988 175.426 L 377.988 175.426 Q 364.357 167.864 356.098 153.138 L 356.098 153.138 L 356.098 153.138 Q 347.84 138.412 347.84 116.522 L 347.84 116.522 L 347.84 116.522 Q 347.84 95.03 356.297 79.807 L 356.297 79.807 L 356.297 79.807 Q 364.755 64.583 378.784 56.523 L 378.784 56.523 L 378.784 56.523 Q 392.814 48.464 409.132 48.464 L 409.132 48.464 L 409.132 48.464 Q 421.669 48.464 431.619 53.539 L 431.619 53.539 L 431.619 53.539 Q 441.569 58.613 448.136 65.379 L 448.136 65.379 L 432.614 84.085 L 432.614 84.085 Q 427.639 79.508 422.166 76.622 L 422.166 76.622 L 422.166 76.622 Q 416.694 73.737 409.729 73.737 L 409.729 73.737 L 409.729 73.737 Q 396.396 73.737 387.142 84.881 L 387.142 84.881 L 387.142 84.881 Q 377.889 96.025 377.889 115.527 L 377.889 115.527 L 377.889 115.527 Q 377.889 135.626 386.446 146.671 L 386.446 146.671 L 386.446 146.671 Q 395.003 157.715 409.331 157.715 L 409.331 157.715 L 409.331 157.715 Q 417.291 157.715 423.559 154.232 L 423.559 154.232 L 423.559 154.232 Q 429.828 150.75 434.604 145.576 L 434.604 145.576 L 450.126 163.884 L 450.126 163.884 Q 433.808 182.988 408.137 182.988 Z  M 486.304 182.988 L 486.304 182.988 L 486.304 182.988 Q 471.18 182.988 465.309 173.934 L 465.309 173.934 L 465.309 173.934 Q 459.439 164.879 459.439 149.954 L 459.439 149.954 L 459.439 41.101 L 488.692 41.101 L 488.692 151.148 L 488.692 151.148 Q 488.692 155.725 490.383 157.516 L 490.383 157.516 L 490.383 157.516 Q 492.075 159.307 493.866 159.307 L 493.866 159.307 L 493.866 159.307 Q 495.856 159.307 497.448 158.909 L 497.448 158.909 L 501.03 180.6 L 501.03 180.6 Q 495.657 182.988 486.304 182.988 Z  M 552.531 182.988 L 552.531 182.988 L 552.531 182.988 Q 531.238 182.988 516.91 169.357 L 516.91 169.357 L 516.91 169.357 Q 502.582 155.725 502.582 131.248 L 502.582 131.248 L 502.582 131.248 Q 502.582 115.328 509.248 103.687 L 509.248 103.687 L 509.248 103.687 Q 515.915 92.045 526.561 85.776 L 526.561 85.776 L 526.561 85.776 Q 537.208 79.508 549.148 79.508 L 549.148 79.508 L 549.148 79.508 Q 570.242 79.508 580.689 93.14 L 580.689 93.14 L 580.689 93.14 Q 591.137 106.771 591.137 126.87 L 591.137 126.87 L 591.137 126.87 Q 591.137 135.029 589.943 139.805 L 589.943 139.805 L 530.84 139.805 L 530.84 139.805 Q 532.83 150.551 539.795 155.626 L 539.795 155.626 L 539.795 155.626 Q 546.76 160.7 556.511 160.7 L 556.511 160.7 L 556.511 160.7 Q 567.058 160.7 577.804 154.133 L 577.804 154.133 L 587.555 171.844 L 587.555 171.844 Q 571.237 182.988 552.531 182.988 Z  M 530.641 120.502 L 530.641 120.502 L 566.262 120.502 L 566.262 120.502 Q 566.262 112.343 562.381 107.07 L 562.381 107.07 L 562.381 107.07 Q 558.501 101.796 549.745 101.796 L 549.745 101.796 L 549.745 101.796 Q 542.78 101.796 537.407 106.473 L 537.407 106.473 L 537.407 106.473 Q 532.034 111.149 530.641 120.502 Z  M 638.26 160.302 L 638.26 160.302 L 638.26 160.302 Q 643.235 160.302 646.917 158.113 L 646.917 158.113 L 646.917 158.113 Q 650.598 155.924 654.379 151.944 L 654.379 151.944 L 654.379 134.631 L 654.379 134.631 Q 638.857 136.82 632.887 140.999 L 632.887 140.999 L 632.887 140.999 Q 626.917 145.178 626.917 150.949 L 626.917 150.949 L 626.917 150.949 Q 626.917 160.302 638.26 160.302 Z  M 628.31 182.988 L 628.31 182.988 L 628.31 182.988 Q 614.778 182.988 606.818 174.331 L 606.818 174.331 L 606.818 174.331 Q 598.858 165.675 598.858 153.138 L 598.858 153.138 L 598.858 153.138 Q 598.858 137.616 611.992 128.86 L 611.992 128.86 L 611.992 128.86 Q 625.126 120.104 654.379 117.119 L 654.379 117.119 L 654.379 117.119 Q 653.981 110.552 650.498 106.672 L 650.498 106.672 L 650.498 106.672 Q 647.016 102.791 638.857 102.791 L 638.857 102.791 L 638.857 102.791 Q 632.688 102.791 626.32 105.179 L 626.32 105.179 L 626.32 105.179 Q 619.952 107.567 612.788 111.746 L 612.788 111.746 L 602.241 92.443 L 602.241 92.443 Q 611.594 86.672 622.141 83.09 L 622.141 83.09 L 622.141 83.09 Q 632.688 79.508 644.429 79.508 L 644.429 79.508 L 644.429 79.508 Q 663.334 79.508 673.483 90.453 L 673.483 90.453 L 673.483 90.453 Q 683.632 101.398 683.632 124.084 L 683.632 124.084 L 683.632 180.6 L 659.752 180.6 L 657.762 170.451 L 656.966 170.451 L 656.966 170.451 Q 650.598 176.023 643.633 179.505 L 643.633 179.505 L 643.633 179.505 Q 636.668 182.988 628.31 182.988 Z  M 729.561 180.6 L 700.308 180.6 L 700.308 81.896 L 724.188 81.896 L 726.178 94.433 L 726.974 94.433 L 726.974 94.433 Q 733.143 88.463 740.904 83.985 L 740.904 83.985 L 740.904 83.985 Q 748.665 79.508 758.615 79.508 L 758.615 79.508 L 758.615 79.508 Q 774.734 79.508 781.997 90.155 L 781.997 90.155 L 781.997 90.155 Q 789.261 100.801 789.261 119.308 L 789.261 119.308 L 789.261 180.6 L 760.008 180.6 L 760.008 123.089 L 760.008 123.089 Q 760.008 112.343 757.122 108.363 L 757.122 108.363 L 757.122 108.363 Q 754.237 104.383 747.869 104.383 L 747.869 104.383 L 747.869 104.383 Q 742.297 104.383 738.317 106.87 L 738.317 106.87 L 738.317 106.87 Q 734.337 109.358 729.561 113.935 L 729.561 113.935 L 729.561 180.6 Z " fill-rule="evenodd" fill="rgb(155,34,84)"/><path d=" M 3 336 L 331.686 336 L 331.686 168.621 L 299.256 168.621 L 299.256 199.916 L 299.256 199.916 L 226.814 149.739 L 114.535 227.655 L 3 305.054" fill="rgb(38,57,107)"/><path d=" M 79.131 16.649 C 83.325 15.937 87.635 15.57 92.03 15.57 C 134.789 15.57 169.504 50.285 169.504 93.043 C 169.504 135.802 134.789 170.517 92.03 170.517 C 55.29 170.517 24.488 144.887 16.538 110.548 C 26.904 120.752 41.125 127.046 56.804 127.046 C 88.515 127.046 114.261 101.3 114.261 69.588 C 114.261 45.795 99.768 25.361 79.131 16.649" fill="rgb(38,57,107)"/></svg>