<?xml version="1.0" standalone="no"?><!-- Generator: Gravit.io --><svg xmlns="http://www.w3.org/2000/svg" xmlns:xlink="http://www.w3.org/1999/xlink" style="isolation:isolate" viewBox="726.569 252.118 354.863 353.314" width="354.863" height="353.314"><radialGradient id="_rgradient_0" fx="0.4939831943968027" fy="0.8108517615906057" cx="0.5" cy="0.5" r="0.5" gradientTransform="matrix(391.22,58.204,0,218.66,708.775,223.016)" gradientUnits="userSpaceOnUse"><stop offset="0%" stop-opacity="1" style="stop-color:rgb(255,11,3)"/><stop offset="91.793576807724%" stop-opacity="1" style="stop-color:rgb(253,184,41)"/><stop offset="100%" stop-opacity="1" style="stop-color:rgb(253,200,44)"/></radialGradient><path d=" M 903.995 278.977 C 979.752 278.977 1042.433 334.927 1052.993 407.757 C 1061.808 407.777 1070.92 408.285 1080.27 409.305 C 1070.222 320.847 995.141 252.118 903.995 252.118 C 814.919 252.118 741.182 317.76 728.499 403.308 C 736.01 400.94 746.167 396.327 758.159 391.935 C 774.864 326.977 833.824 278.977 903.995 278.977 Z  M 903.995 305.836 C 965.408 305.836 1016.36 350.588 1026.042 409.258 C 1034.661 408.258 1043.659 407.736 1052.993 407.757 C 1042.433 334.927 979.752 278.977 903.995 278.977 C 833.824 278.977 774.864 326.978 758.159 391.935 C 767.533 388.502 778.027 385.211 789.251 383.236 C 807.585 337.858 852.047 305.836 903.995 305.836 Z  M 819.719 381.838 C 836.364 352.502 867.857 332.695 903.995 332.695 C 952.23 332.695 992.215 367.96 999.611 414.109 C 1007.924 411.971 1016.758 410.335 1026.043 409.257 C 1016.36 350.588 965.407 305.836 903.995 305.836 C 852.048 305.836 807.585 337.858 789.252 383.236 C 798.946 381.53 809.184 380.813 819.719 381.838 Z  M 903.995 360.195 C 939.977 360.195 969.556 387.6 973.007 422.675 C 976.226 421.691 979.515 420.578 982.911 419.314 C 988.2 417.345 993.78 415.609 999.61 414.109 C 992.214 367.959 952.23 332.695 903.995 332.695 C 867.856 332.695 836.363 352.501 819.719 381.838 C 828.894 382.731 838.292 384.95 847.749 388.996 C 860.347 371.556 880.838 360.195 903.995 360.195 Z  M 847.699 470.778 C 845.221 470.175 842.781 469.664 840.374 469.232 C 842.85 469.834 845.29 470.349 847.699 470.778 Z  M 872.655 402.951 C 880.197 394.074 891.434 388.434 903.995 388.434 C 926.041 388.434 944.032 405.786 945.062 427.576 C 954.114 427.354 963.208 425.674 973.007 422.676 C 969.556 387.6 939.978 360.196 903.995 360.196 C 880.838 360.196 860.347 371.556 847.75 388.997 C 852.252 390.923 856.767 393.254 861.278 396.063 C 865.218 398.517 868.993 400.8 872.655 402.951 Z  M 945.06 427.576 C 944.03 405.785 926.04 388.433 903.995 388.433 C 891.434 388.433 880.196 394.073 872.654 402.951 C 902.534 420.505 923.709 428.1 945.06 427.576 Z " fill-rule="evenodd" fill="url(#_rgradient_0)"/><radialGradient id="_rgradient_1" fx="0.5" fy="0.5" cx="0.5" cy="0.5" r="0.5" gradientTransform="matrix(354.863,0,0,90.964,726.569,379.814)" gradientUnits="userSpaceOnUse"><stop offset="0%" stop-opacity="1" style="stop-color:rgb(237,205,179)"/><stop offset="98.26086956521739%" stop-opacity="1" style="stop-color:rgb(222,163,120)"/></radialGradient><path d=" M 1054.572 427.999 C 1054.572 431.67 1054.434 435.309 1054.176 438.914 C 1064.485 442.633 1073.23 446.271 1079.818 448.147 C 1079.967 448.189 1080.123 448.23 1080.271 448.272 C 1081.029 441.618 1081.431 434.855 1081.431 427.999 C 1081.431 421.152 1081.03 414.399 1080.275 407.754 C 1070.925 406.735 1061.813 406.227 1052.998 406.207 C 1054.029 413.323 1054.572 420.597 1054.572 427.999 Z  M 755.361 452.121 C 754.096 444.267 753.428 436.211 753.428 427.999 C 753.428 415.011 755.073 402.408 758.165 390.385 C 746.172 394.777 736.015 399.39 728.504 401.758 C 727.235 410.321 726.569 419.082 726.569 427.999 C 726.569 436.648 727.2 445.149 728.396 453.469 C 737.64 452.556 746.646 452.115 755.361 452.121 Z  M 780.288 427.999 C 780.288 411.622 783.478 395.992 789.258 381.686 C 778.032 383.661 767.538 386.952 758.165 390.385 C 755.073 402.408 753.428 415.011 753.428 427.999 C 753.428 436.211 754.096 444.267 755.361 452.121 C 764.931 452.128 774.153 452.667 782.965 453.683 C 781.213 445.395 780.288 436.807 780.288 427.999 Z  M 1026.047 407.707 C 1027.137 414.31 1027.714 421.086 1027.714 427.999 C 1027.714 428.974 1027.698 429.944 1027.678 430.913 C 1037.266 433.108 1046.192 436.034 1054.176 438.914 C 1054.434 435.309 1054.572 431.67 1054.572 427.999 C 1054.572 420.598 1054.029 413.324 1052.998 406.207 C 1043.665 406.187 1034.666 406.707 1026.047 407.707 Z  M 807.146 427.999 C 807.146 410.646 811.732 394.374 819.724 380.288 C 809.189 379.263 798.952 379.98 789.256 381.686 C 783.478 395.992 780.288 411.622 780.288 427.999 C 780.288 436.807 781.215 445.395 782.963 453.683 C 793.355 454.88 803.168 456.746 812.308 459.187 C 808.98 449.397 807.146 438.915 807.146 427.999 Z  M 1000.839 427.351 C 1010.179 427.602 1019.188 428.971 1027.678 430.914 C 1027.698 429.944 1027.714 428.974 1027.714 427.999 C 1027.714 421.086 1027.137 414.311 1026.047 407.707 C 1016.764 408.784 1007.929 410.421 999.615 412.559 C 1000.389 417.381 1000.805 422.32 1000.839 427.351 Z  M 973.012 421.125 C 973.235 423.387 973.355 425.679 973.355 427.999 C 973.355 428.729 973.322 429.451 973.299 430.176 C 982.671 427.899 991.905 427.112 1000.839 427.351 C 1000.805 422.32 1000.389 417.381 999.615 412.56 C 993.786 414.06 988.205 415.796 982.916 417.765 C 979.52 419.028 976.231 420.142 973.012 421.125 Z  M 840.379 467.683 C 842.786 468.115 845.226 468.626 847.704 469.229 C 847.907 469.265 848.109 469.298 848.31 469.333 C 839.728 457.789 834.648 443.488 834.648 427.999 C 834.648 412.853 839.517 398.853 847.754 387.447 C 838.297 383.401 828.9 381.182 819.724 380.288 C 811.732 394.375 807.146 410.647 807.146 427.999 C 807.146 438.915 808.98 449.397 812.308 459.187 C 816.59 460.332 820.73 461.596 824.704 462.986 C 830.157 464.895 835.346 466.459 840.379 467.683 Z  M 890.903 466.971 C 874.619 461.499 862.886 446.125 862.886 427.999 C 862.886 417.853 866.568 408.572 872.661 401.401 C 868.998 399.25 865.222 396.968 861.283 394.513 C 856.773 391.704 852.256 389.373 847.756 387.447 C 839.517 398.853 834.648 412.854 834.648 427.999 C 834.648 443.488 839.728 457.789 848.31 469.333 C 862.598 471.796 875.972 471.176 890.903 466.971 Z  M 945.115 427.999 C 945.115 433.53 944.016 438.804 942.034 443.621 C 943.452 442.808 944.879 441.983 946.336 441.131 C 955.352 435.853 964.386 432.342 973.299 430.176 C 973.321 429.451 973.355 428.73 973.355 427.999 C 973.355 425.679 973.235 423.387 973.011 421.125 C 963.211 424.124 954.118 425.804 945.067 426.026 C 945.097 426.68 945.115 427.337 945.115 427.999 Z  M 945.066 426.026 C 923.713 426.55 902.538 418.955 872.659 401.401 C 866.567 408.571 862.886 417.852 862.886 427.999 C 862.886 446.125 874.619 461.499 890.902 466.971 C 905.628 462.823 921.882 455.192 942.034 443.621 C 944.016 438.804 945.115 433.53 945.115 427.999 C 945.115 427.337 945.097 426.68 945.066 426.026 Z " fill-rule="evenodd" fill="url(#_rgradient_1)"/><radialGradient id="_rgradient_2" fx="0.5" fy="0.5" cx="0.5" cy="0.5" r="0.5" gradientTransform="matrix(351.874,0,0,92.901,728.396,417.152)" gradientUnits="userSpaceOnUse"><stop offset="2.1739130434782608%" stop-opacity="1" style="stop-color:rgb(189,126,64)"/><stop offset="98.26086956521739%" stop-opacity="1" style="stop-color:rgb(221,189,155)"/></radialGradient><path d=" M 1032.534 432.098 L 1036.808 427.359 L 1033.624 427.359 L 1038.002 421.898 L 1036.592 421.898 L 1039.331 417.152 L 1042.072 421.898 L 1040.66 421.898 L 1045.037 427.359 L 1041.855 427.359 L 1047.891 434.053 L 1045.003 434.053 L 1047.408 436.553 C 1049.731 437.333 1051.989 438.125 1054.176 438.914 C 1053.433 449.292 1051.644 459.379 1048.903 469.067 C 1046.497 477.575 1043.359 485.776 1039.566 493.6 C 1027.907 494.136 1016.842 495.389 1006.508 497.279 C 1012.198 488.876 1016.879 479.735 1020.385 470.031 C 1024.813 457.774 1027.36 444.62 1027.678 430.913 L 1027.678 430.913 C 1029.316 431.288 1030.935 431.685 1032.534 432.098 Z  M 936.649 489.191 C 926.918 494.394 915.805 497.352 904 497.352 C 896.421 497.352 889.132 496.119 882.305 493.872 C 912.396 507.782 933.61 512.224 956.916 509.104 C 969.562 500.837 980.145 489.698 987.761 476.606 C 986.588 476.997 985.481 477.388 984.497 477.776 C 969.662 483.613 959.835 490.145 936.649 489.191 L 936.649 489.191 Z  M 936.649 489.191 C 919.495 488.485 895.032 483.681 855.806 471.46 C 853.282 470.673 850.805 470.003 848.353 469.393 C 852.993 475.621 858.653 481.041 865.086 485.411 C 871.159 488.549 876.877 491.363 882.305 493.873 C 889.132 496.12 896.421 497.353 904 497.353 C 915.806 497.353 926.918 494.395 936.649 489.191 L 936.649 489.191 Z  M 1079.818 448.147 C 1073.23 446.271 1064.485 442.632 1054.175 438.914 C 1053.431 449.292 1051.642 459.378 1048.902 469.067 C 1046.495 477.575 1043.357 485.776 1039.564 493.599 C 1048.958 493.167 1058.735 493.204 1068.838 493.761 C 1071.523 487.037 1073.808 480.111 1075.665 473.01 C 1077.766 464.972 1079.31 456.711 1080.27 448.272 C 1080.123 448.23 1079.968 448.189 1079.818 448.147 L 1079.818 448.147 Z  M 755.361 452.121 C 746.646 452.115 737.64 452.556 728.396 453.469 C 730.064 465.069 732.853 476.304 736.652 487.065 C 743.831 484.701 752.478 481.587 762.198 478.732 C 759.144 470.191 756.838 461.295 755.361 452.121 L 755.361 452.121 Z  M 787.948 470.942 C 785.885 465.367 784.215 459.602 782.965 453.682 C 774.152 452.666 764.93 452.127 755.361 452.12 C 756.838 461.295 759.142 470.19 762.198 478.73 C 766.93 477.339 771.913 476.011 777.109 474.86 C 780.842 474.033 784.685 473.3 788.618 472.7 C 788.39 472.117 788.167 471.531 787.948 470.942 L 787.948 470.942 Z  M 1000.839 427.351 C 1000.839 427.568 1000.856 427.782 1000.856 427.999 C 1000.856 445.721 996.072 462.316 987.761 476.606 C 980.148 489.698 969.563 500.836 956.916 509.104 C 965.158 508 973.661 505.962 982.916 503.055 C 990.257 500.75 998.145 498.809 1006.508 497.279 C 1012.198 488.876 1016.879 479.735 1020.385 470.031 C 1024.813 457.774 1027.36 444.62 1027.678 430.914 C 1019.188 428.971 1010.179 427.602 1000.839 427.351 L 1000.839 427.351 Z  M 814.911 466.038 C 813.954 463.8 813.099 461.509 812.308 459.187 C 803.168 456.745 793.355 454.879 782.965 453.682 C 784.215 459.602 785.885 465.367 787.95 470.942 C 788.167 471.531 788.39 472.117 788.618 472.701 C 797.771 471.305 807.418 470.642 817.346 471.255 C 816.489 469.542 815.668 467.808 814.911 466.038 L 814.911 466.038 Z  M 847.704 469.228 C 847.92 469.28 848.137 469.338 848.353 469.392 C 848.338 469.372 848.325 469.352 848.31 469.332 C 848.109 469.298 847.907 469.265 847.704 469.228 L 847.704 469.228 Z  M 973.299 430.176 C 972.508 455.751 957.889 477.836 936.649 489.192 C 959.835 490.146 969.662 483.615 984.498 477.777 C 985.482 477.389 986.589 476.998 987.762 476.607 C 996.073 462.317 1000.856 445.721 1000.856 428 C 1000.856 427.782 1000.84 427.568 1000.839 427.352 C 991.905 427.112 982.671 427.898 973.299 430.176 L 973.299 430.176 Z  M 904 469.114 C 921.176 469.114 935.885 458.579 942.034 443.621 C 921.882 455.191 905.628 462.822 890.903 466.97 C 895.017 468.353 899.418 469.114 904 469.114 L 904 469.114 Z  M 848.353 469.392 C 848.137 469.339 847.92 469.281 847.704 469.229 C 845.295 468.799 842.855 468.285 840.379 467.683 C 835.346 466.459 830.157 464.895 824.704 462.987 C 820.73 461.597 816.59 460.333 812.308 459.188 C 813.099 461.509 813.954 463.8 814.911 466.039 C 815.668 467.809 816.489 469.543 817.346 471.256 C 831.622 472.137 846.478 475.651 861.283 483.434 C 862.572 484.111 863.83 484.761 865.086 485.413 C 858.654 481.041 852.993 475.621 848.353 469.392 L 848.353 469.392 Z  M 936.649 489.191 C 957.887 477.837 972.507 455.751 973.297 430.175 C 964.386 432.341 955.352 435.852 946.335 441.13 C 944.878 441.983 943.451 442.807 942.033 443.62 C 935.883 458.578 921.175 469.113 903.999 469.113 C 899.417 469.113 895.016 468.352 890.9 466.969 C 875.971 471.174 862.597 471.794 848.31 469.331 C 848.323 469.351 848.336 469.371 848.351 469.391 C 850.803 470.001 853.282 470.671 855.805 471.458 C 895.032 483.682 919.495 488.485 936.649 489.191 L 936.649 489.191 Z " fill-rule="evenodd" fill="url(#_rgradient_2)"/><radialGradient id="_rgradient_3" fx="0.5" fy="0.5" cx="0.5" cy="0.5" r="0.5" gradientTransform="matrix(332.184,0,0,87.632,736.652,456.631)" gradientUnits="userSpaceOnUse"><stop offset="2.608695652173913%" stop-opacity="1" style="stop-color:rgb(16,36,36)"/><stop offset="100%" stop-opacity="1" style="stop-color:rgb(81,135,135)"/></radialGradient><path d=" M 1039.564 493.6 C 1036.136 500.672 1032.166 507.432 1027.714 513.833 C 1038.796 510.777 1050.292 508.889 1061.697 509.389 C 1064.318 504.318 1066.704 499.104 1068.836 493.762 C 1058.735 493.205 1048.958 493.168 1039.564 493.6 Z  M 763.202 481.445 C 762.859 480.544 762.525 479.639 762.2 478.731 C 752.478 481.586 743.831 484.7 736.652 487.065 C 737.273 488.824 737.915 490.573 738.59 492.306 C 741.056 498.645 743.881 504.805 747.032 510.766 C 755.458 506.687 764.056 503.523 772.808 501.929 C 769.116 495.39 765.898 488.546 763.202 481.445 Z  M 780.149 473.531 L 783.039 473.531 L 777.003 466.838 L 780.185 466.838 L 775.808 461.378 L 775.808 461.378 L 777.219 461.378 L 774.479 456.631 L 774.479 456.631 L 771.739 461.378 L 773.149 461.378 L 768.771 466.838 L 771.954 466.838 L 771.954 466.838 L 765.919 473.531 L 768.808 473.531 L 764.426 478.087 C 763.677 478.3 762.935 478.515 762.198 478.731 L 762.198 478.731 L 762.198 478.731 L 762.198 478.731 L 762.198 478.731 L 762.198 478.731 L 762.198 478.731 L 762.198 478.731 L 762.198 478.731 L 762.198 478.731 C 762.523 479.639 762.859 480.543 763.201 481.445 C 764.441 480.786 765.696 480.137 766.966 479.501 L 766.967 479.501 C 765.698 480.137 764.443 480.786 763.201 481.446 C 765.898 488.547 769.115 495.39 772.808 501.93 C 783.989 499.893 795.417 500.42 807.055 504.852 L 807.055 504.852 L 807.055 504.852 C 807.055 504.852 807.055 504.851 807.055 504.851 L 807.055 504.851 L 807.055 504.851 L 807.055 504.851 L 807.055 504.851 L 807.055 504.851 L 807.055 504.851 L 807.055 504.851 L 807.055 504.851 L 807.055 504.851 L 807.055 504.851 L 807.055 504.851 L 807.055 504.851 C 799.394 495.201 793.145 484.381 788.618 472.702 C 788.618 472.702 788.618 472.702 788.618 472.702 C 785.935 473.112 783.294 473.583 780.7 474.104 L 780.149 473.531 Z  M 1026.432 493.838 L 1029.375 493.838 L 1023.224 487.016 L 1026.468 487.016 L 1022.006 481.451 L 1022.006 481.451 L 1023.445 481.451 L 1020.651 476.614 L 1020.651 476.614 L 1017.859 481.451 L 1019.297 481.451 L 1014.836 487.016 L 1018.079 487.016 L 1018.079 487.016 L 1011.929 493.838 L 1014.872 493.838 L 1012.54 496.262 C 1010.503 496.577 1008.492 496.916 1006.508 497.279 L 1006.508 497.279 L 1006.508 497.279 L 1006.508 497.279 L 1006.508 497.279 L 1006.508 497.279 L 1006.508 497.279 L 1006.508 497.279 L 1006.508 497.279 L 1006.508 497.279 C 1003.807 501.267 1000.878 505.089 997.744 508.726 C 985.682 522.719 970.539 533.977 953.37 541.458 C 956.839 540.753 960.117 539.935 963.18 539.02 C 977.529 534.737 1000.06 521.955 1024.926 514.626 C 1025.853 514.353 1026.782 514.089 1027.715 513.831 C 1032.166 507.429 1036.136 500.67 1039.566 493.598 C 1035.309 493.795 1031.131 494.087 1027.04 494.47 L 1026.432 493.838 L 1026.432 493.838 L 1026.432 493.838 L 1026.432 493.838 L 1026.432 493.838 Z  M 908.432 524.741 C 922.12 524.124 935.063 520.665 946.695 514.942 L 946.695 514.942 C 946.694 514.942 946.693 514.943 946.692 514.943 L 946.692 514.943 C 931.89 519.187 919.281 522.393 908.432 524.741 L 908.432 524.741 L 908.432 524.741 L 908.432 524.741 L 908.432 524.741 L 908.432 524.741 L 908.432 524.741 L 908.432 524.741 L 908.432 524.741 L 908.432 524.741 L 908.432 524.741 L 908.432 524.741 L 908.432 524.741 L 908.432 524.741 L 908.432 524.741 Z  M 860.766 530.05 C 861.244 530.078 861.726 530.104 862.216 530.125 C 861.726 530.103 861.244 530.078 860.766 530.05 L 860.766 530.05 L 860.766 530.05 L 860.766 530.05 L 860.766 530.05 L 860.766 530.05 L 860.766 530.05 L 860.766 530.05 L 860.766 530.05 L 860.766 530.05 L 860.766 530.05 L 860.766 530.05 L 860.766 530.05 L 860.766 530.05 Z  M 956.917 509.104 C 933.61 512.223 912.396 507.782 882.305 493.872 L 882.305 493.872 C 876.141 491.842 870.352 488.985 865.086 485.41 C 863.83 484.76 862.572 484.109 861.283 483.432 C 846.477 475.649 831.622 472.135 817.346 471.254 C 833.237 503.025 866.06 524.853 904 524.853 C 905.487 524.853 906.961 524.807 908.432 524.741 L 908.432 524.741 C 919.283 522.392 931.891 519.186 946.695 514.942 L 946.695 514.942 C 950.231 513.202 953.64 511.247 956.917 509.104 L 956.917 509.104 L 956.917 509.104 L 956.917 509.104 L 956.917 509.104 L 956.917 509.104 L 956.917 509.104 L 956.917 509.104 L 956.917 509.104 L 956.917 509.104 L 956.917 509.104 L 956.917 509.104 Z  M 882.305 493.872 L 882.305 493.872 C 876.877 491.362 871.159 488.548 865.086 485.41 C 870.352 488.985 876.141 491.842 882.305 493.872 L 882.305 493.872 L 882.305 493.872 L 882.305 493.872 L 882.305 493.872 L 882.305 493.872 L 882.305 493.872 L 882.305 493.872 L 882.305 493.872 L 882.305 493.872 L 882.305 493.872 Z  M 1026.725 515.256 C 1027.062 514.785 1027.385 514.308 1027.715 513.833 C 1026.782 514.09 1025.853 514.355 1024.926 514.628 C 1025.529 514.833 1026.128 515.044 1026.725 515.256 L 1026.725 515.256 L 1026.725 515.256 L 1026.725 515.256 L 1026.725 515.256 L 1026.725 515.256 L 1026.725 515.256 L 1026.725 515.256 L 1026.725 515.256 Z  M 982.916 503.056 C 973.661 505.963 965.158 508.001 956.917 509.105 C 953.64 511.248 950.231 513.203 946.693 514.942 C 946.693 514.942 946.693 514.943 946.692 514.943 C 935.06 520.666 922.118 524.125 908.43 524.742 C 906.961 524.808 905.485 524.854 904 524.854 C 866.06 524.854 833.235 503.026 817.346 471.255 C 807.417 470.643 797.771 471.305 788.617 472.701 C 788.618 472.701 788.618 472.702 788.618 472.702 C 793.145 484.382 799.394 495.201 807.055 504.851 C 807.055 504.851 807.055 504.851 807.055 504.851 C 811.821 506.666 816.62 509.127 821.451 512.347 C 831.646 519.14 841.954 524.654 852.185 529.076 L 852.187 529.076 C 890.242 545.528 927.234 546.766 953.37 541.458 C 970.537 533.977 985.682 522.719 997.744 508.726 C 1000.878 505.088 1003.807 501.267 1006.508 497.279 C 998.146 498.81 990.258 500.751 982.916 503.056 L 982.916 503.056 L 982.916 503.056 L 982.916 503.056 L 982.916 503.056 L 982.916 503.056 L 982.916 503.056 L 982.916 503.056 L 982.916 503.056 L 982.916 503.056 L 982.916 503.056 L 982.916 503.056 L 982.916 503.056 L 982.916 503.056 Z " fill-rule="evenodd" fill="url(#_rgradient_3)"/><path d=" M 820.767 510.531 L 850.187 467.236 C 869.267 485.701 889.968 495.425 912.043 495.425 C 926.486 495.425 934.119 489.388 934.119 479.336 L 934.119 478.653 C 934.119 468.601 927.84 463.548 901.683 455.845 C 861.08 444.427 829.752 430.36 829.752 382.367 L 829.752 381.712 C 829.752 338.09 857.819 306.569 903.589 306.569 C 936.028 306.569 961.364 317.303 982.064 337.762 L 955.641 383.706 C 938.201 368.3 919.12 360.57 902.237 360.57 C 889.413 360.57 883.158 366.934 883.158 375.675 L 883.158 376.331 C 883.158 387.066 889.702 391.764 916.394 399.139 C 959.99 410.884 987.234 428.339 987.234 472.288 L 987.234 472.943 C 987.234 520.908 956.461 549.424 910.136 549.424 C 876.344 549.427 844.463 536.343 820.767 510.531 Z " fill="rgb(255,255,255)"/><radialGradient id="_rgradient_4" fx="0.49884164217754545" fy="0.6985375513830152" cx="0.5" cy="0.5" r="0.5" gradientTransform="matrix(314.668,0,0,144.071,747.03,461.361)" gradientUnits="userSpaceOnUse"><stop offset="0%" stop-opacity="1" style="stop-color:rgb(115,92,82)"/><stop offset="100%" stop-opacity="1" style="stop-color:rgb(0,0,0)"/></radialGradient><path d=" M 1027.715 513.833 C 1027.386 514.308 1027.062 514.785 1026.726 515.256 C 1016.386 529.773 1003.533 542.371 988.804 552.429 C 964.652 568.921 935.454 578.572 904 578.572 C 867.659 578.572 834.327 565.697 808.312 544.26 C 796.885 534.844 786.877 523.773 778.639 511.419 C 776.583 508.334 774.637 505.169 772.808 501.93 C 764.056 503.524 755.458 506.688 747.03 510.767 C 747.262 511.204 747.487 511.643 747.722 512.079 C 755.508 526.517 765.237 539.75 776.558 551.435 C 806.135 581.967 846.583 601.9 891.663 604.997 C 895.74 605.277 899.852 605.432 904 605.432 C 956.559 605.432 1003.77 582.573 1036.26 546.264 C 1037.206 545.204 1038.142 544.135 1039.064 543.053 C 1043.53 537.816 1047.698 532.319 1051.54 526.582 C 1055.235 521.063 1058.629 515.324 1061.698 509.39 C 1050.292 508.889 1038.797 510.777 1027.715 513.833 Z  M 1024.925 514.628 C 1000.06 521.956 977.529 534.738 963.18 539.022 C 960.118 539.936 956.839 540.754 953.369 541.46 C 943.196 543.526 931.372 544.594 918.485 544.165 L 903.059 528.128 L 914.472 528.128 L 890.627 501.684 L 903.2 501.684 L 885.908 480.112 L 891.48 480.112 L 880.654 461.361 L 869.829 480.112 L 875.4 480.112 L 858.109 501.684 L 870.681 501.684 L 847.767 527.095 C 838.993 523.036 830.181 518.165 821.452 512.349 C 816.62 509.129 811.821 506.668 807.055 504.853 C 795.418 500.421 783.989 499.894 772.808 501.931 C 774.637 505.17 776.581 508.335 778.64 511.42 C 786.877 523.774 796.885 534.845 808.312 544.261 C 834.327 565.698 867.659 578.573 904 578.573 C 935.454 578.573 964.65 568.923 988.804 552.43 C 1003.533 542.372 1016.386 529.774 1026.726 515.257 C 1026.128 515.044 1025.529 514.833 1024.925 514.628 Z  M 858.248 528.127 L 855.853 530.616 C 854.633 530.118 853.411 529.605 852.187 529.077 C 851.476 528.769 850.764 528.444 850.053 528.127 L 858.248 528.127 Z " fill-rule="evenodd" fill="url(#_rgradient_4)"/></svg>