<?xml version="1.0" standalone="no"?><!-- Generator: Gravit.io --><svg xmlns="http://www.w3.org/2000/svg" xmlns:xlink="http://www.w3.org/1999/xlink" style="isolation:isolate" viewBox="-78.753 -37.249 1914.753 898.749" width="1914.753" height="898.749"><defs><clipPath id="_clipPath_hyEwmjY0eZ1mD2cvzV20nojwkgJakGBE"><rect x="-78.753" y="-37.249" width="1914.753" height="898.749"/></clipPath></defs><g clip-path="url(#_clipPath_hyEwmjY0eZ1mD2cvzV20nojwkgJakGBE)"><path d=" M 801.888 594.629 L 631.02 594.629 L 631.02 353.465 L 793.884 353.465 L 793.884 399.053 L 685.308 399.053 L 685.308 446.381 L 781.704 446.381 L 781.704 490.925 L 685.308 490.925 L 685.308 549.041 L 801.888 549.041 L 801.888 594.629 Z  M 828.428 594.629 L 828.428 417.845 L 828.428 417.845 Q 841.652 414.017 862.532 410.711 L 862.532 410.711 L 862.532 410.711 Q 883.412 407.405 906.38 407.405 L 906.38 407.405 L 906.38 407.405 Q 929.696 407.405 945.182 413.495 L 945.182 413.495 L 945.182 413.495 Q 960.668 419.585 969.716 430.721 L 969.716 430.721 L 969.716 430.721 Q 978.764 441.857 982.592 457.169 L 982.592 457.169 L 982.592 457.169 Q 986.42 472.481 986.42 491.273 L 986.42 491.273 L 986.42 594.629 L 934.568 594.629 L 934.568 497.537 L 934.568 497.537 Q 934.568 472.481 927.956 462.041 L 927.956 462.041 L 927.956 462.041 Q 921.344 451.601 903.248 451.601 L 903.248 451.601 L 903.248 451.601 Q 897.68 451.601 891.416 452.123 L 891.416 452.123 L 891.416 452.123 Q 885.152 452.645 880.28 453.341 L 880.28 453.341 L 880.28 594.629 L 828.428 594.629 Z  M 1067.596 501.713 L 1067.596 501.713 L 1067.596 501.713 Q 1067.596 525.725 1078.384 540.341 L 1078.384 540.341 L 1078.384 540.341 Q 1089.172 554.957 1110.4 554.957 L 1110.4 554.957 L 1110.4 554.957 Q 1117.36 554.957 1123.276 554.435 L 1123.276 554.435 L 1123.276 554.435 Q 1129.192 553.913 1133.02 553.217 L 1133.02 553.217 L 1133.02 458.909 L 1133.02 458.909 Q 1128.148 455.777 1120.318 453.689 L 1120.318 453.689 L 1120.318 453.689 Q 1112.488 451.601 1104.484 451.601 L 1104.484 451.601 L 1104.484 451.601 Q 1067.596 451.601 1067.596 501.713 Z  M 1184.872 324.581 L 1184.872 588.713 L 1184.872 588.713 Q 1177.912 590.801 1168.864 592.715 L 1168.864 592.715 L 1168.864 592.715 Q 1159.816 594.629 1149.898 596.021 L 1149.898 596.021 L 1149.898 596.021 Q 1139.98 597.413 1129.714 598.283 L 1129.714 598.283 L 1129.714 598.283 Q 1119.448 599.153 1110.052 599.153 L 1110.052 599.153 L 1110.052 599.153 Q 1087.432 599.153 1069.684 592.541 L 1069.684 592.541 L 1069.684 592.541 Q 1051.936 585.929 1039.756 573.575 L 1039.756 573.575 L 1039.756 573.575 Q 1027.576 561.221 1021.138 543.647 L 1021.138 543.647 L 1021.138 543.647 Q 1014.7 526.073 1014.7 504.149 L 1014.7 504.149 L 1014.7 504.149 Q 1014.7 481.877 1020.268 463.955 L 1020.268 463.955 L 1020.268 463.955 Q 1025.836 446.033 1036.276 433.505 L 1036.276 433.505 L 1036.276 433.505 Q 1046.716 420.977 1061.854 414.365 L 1061.854 414.365 L 1061.854 414.365 Q 1076.992 407.753 1096.48 407.753 L 1096.48 407.753 L 1096.48 407.753 Q 1107.268 407.753 1115.794 409.841 L 1115.794 409.841 L 1115.794 409.841 Q 1124.32 411.929 1133.02 415.757 L 1133.02 415.757 L 1133.02 332.933 L 1184.872 324.581 Z  M 1275.444 411.581 L 1275.444 594.629 L 1223.592 594.629 L 1223.592 411.581 L 1275.444 411.581 Z  M 1280.316 358.685 L 1280.316 358.685 L 1280.316 358.685 Q 1280.316 372.953 1271.094 381.131 L 1271.094 381.131 L 1271.094 381.131 Q 1261.872 389.309 1249.344 389.309 L 1249.344 389.309 L 1249.344 389.309 Q 1236.816 389.309 1227.594 381.131 L 1227.594 381.131 L 1227.594 381.131 Q 1218.372 372.953 1218.372 358.685 L 1218.372 358.685 L 1218.372 358.685 Q 1218.372 344.417 1227.594 336.239 L 1227.594 336.239 L 1227.594 336.239 Q 1236.816 328.061 1249.344 328.061 L 1249.344 328.061 L 1249.344 328.061 Q 1261.872 328.061 1271.094 336.239 L 1271.094 336.239 L 1271.094 336.239 Q 1280.316 344.417 1280.316 358.685 Z  M 1314.164 594.629 L 1314.164 417.845 L 1314.164 417.845 Q 1327.388 414.017 1348.268 410.711 L 1348.268 410.711 L 1348.268 410.711 Q 1369.148 407.405 1392.116 407.405 L 1392.116 407.405 L 1392.116 407.405 Q 1415.432 407.405 1430.918 413.495 L 1430.918 413.495 L 1430.918 413.495 Q 1446.404 419.585 1455.452 430.721 L 1455.452 430.721 L 1455.452 430.721 Q 1464.5 441.857 1468.328 457.169 L 1468.328 457.169 L 1468.328 457.169 Q 1472.156 472.481 1472.156 491.273 L 1472.156 491.273 L 1472.156 594.629 L 1420.304 594.629 L 1420.304 497.537 L 1420.304 497.537 Q 1420.304 472.481 1413.692 462.041 L 1413.692 462.041 L 1413.692 462.041 Q 1407.08 451.601 1388.984 451.601 L 1388.984 451.601 L 1388.984 451.601 Q 1383.416 451.601 1377.152 452.123 L 1377.152 452.123 L 1377.152 452.123 Q 1370.888 452.645 1366.016 453.341 L 1366.016 453.341 L 1366.016 594.629 L 1314.164 594.629 Z  M 1553.332 497.189 L 1553.332 497.189 L 1553.332 497.189 Q 1553.332 540.689 1588.48 540.689 L 1588.48 540.689 L 1588.48 540.689 Q 1596.484 540.689 1603.444 538.601 L 1603.444 538.601 L 1603.444 538.601 Q 1610.404 536.513 1615.276 533.729 L 1615.276 533.729 L 1615.276 450.905 L 1615.276 450.905 Q 1611.448 450.209 1606.228 449.687 L 1606.228 449.687 L 1606.228 449.687 Q 1601.008 449.165 1594.048 449.165 L 1594.048 449.165 L 1594.048 449.165 Q 1573.516 449.165 1563.424 462.737 L 1563.424 462.737 L 1563.424 462.737 Q 1553.332 476.309 1553.332 497.189 Z  M 1667.128 417.845 L 1667.128 571.661 L 1667.128 571.661 Q 1667.128 616.553 1644.334 638.303 L 1644.334 638.303 L 1644.334 638.303 Q 1621.54 660.053 1573.864 660.053 L 1573.864 660.053 L 1573.864 660.053 Q 1557.16 660.053 1540.456 657.095 L 1540.456 657.095 L 1540.456 657.095 Q 1523.752 654.137 1509.484 649.265 L 1509.484 649.265 L 1518.532 605.765 L 1518.532 605.765 Q 1530.712 610.637 1544.11 613.421 L 1544.11 613.421 L 1544.11 613.421 Q 1557.508 616.205 1574.56 616.205 L 1574.56 616.205 L 1574.56 616.205 Q 1596.832 616.205 1606.054 606.461 L 1606.054 606.461 L 1606.054 606.461 Q 1615.276 596.717 1615.276 581.405 L 1615.276 581.405 L 1615.276 574.793 L 1615.276 574.793 Q 1606.924 578.621 1598.05 580.535 L 1598.05 580.535 L 1598.05 580.535 Q 1589.176 582.449 1578.736 582.449 L 1578.736 582.449 L 1578.736 582.449 Q 1540.804 582.449 1520.62 560.003 L 1520.62 560.003 L 1520.62 560.003 Q 1500.436 537.557 1500.436 497.189 L 1500.436 497.189 L 1500.436 497.189 Q 1500.436 477.005 1506.7 460.475 L 1506.7 460.475 L 1506.7 460.475 Q 1512.964 443.945 1524.97 432.113 L 1524.97 432.113 L 1524.97 432.113 Q 1536.976 420.281 1554.376 413.843 L 1554.376 413.843 L 1554.376 413.843 Q 1571.776 407.405 1593.7 407.405 L 1593.7 407.405 L 1593.7 407.405 Q 1603.096 407.405 1613.014 408.275 L 1613.014 408.275 L 1613.014 408.275 Q 1622.932 409.145 1632.676 410.537 L 1632.676 410.537 L 1632.676 410.537 Q 1642.42 411.929 1651.294 413.843 L 1651.294 413.843 L 1651.294 413.843 Q 1660.168 415.757 1667.128 417.845 L 1667.128 417.845 Z  M 1758.396 557.393 L 1758.396 557.393 L 1758.396 557.393 Q 1772.664 557.393 1778.58 554.609 L 1778.58 554.609 L 1778.58 554.609 Q 1784.496 551.825 1784.496 543.821 L 1784.496 543.821 L 1784.496 543.821 Q 1784.496 537.557 1776.84 532.859 L 1776.84 532.859 L 1776.84 532.859 Q 1769.184 528.161 1753.524 522.245 L 1753.524 522.245 L 1753.524 522.245 Q 1741.344 517.721 1731.426 512.849 L 1731.426 512.849 L 1731.426 512.849 Q 1721.508 507.977 1714.548 501.191 L 1714.548 501.191 L 1714.548 501.191 Q 1707.588 494.405 1703.76 485.009 L 1703.76 485.009 L 1703.76 485.009 Q 1699.932 475.613 1699.932 462.389 L 1699.932 462.389 L 1699.932 462.389 Q 1699.932 436.637 1719.072 421.673 L 1719.072 421.673 L 1719.072 421.673 Q 1738.212 406.709 1771.62 406.709 L 1771.62 406.709 L 1771.62 406.709 Q 1788.324 406.709 1803.636 409.667 L 1803.636 409.667 L 1803.636 409.667 Q 1818.948 412.625 1827.996 416.105 L 1827.996 416.105 L 1818.948 456.473 L 1818.948 456.473 Q 1809.9 453.341 1799.286 450.905 L 1799.286 450.905 L 1799.286 450.905 Q 1788.672 448.469 1775.448 448.469 L 1775.448 448.469 L 1775.448 448.469 Q 1751.088 448.469 1751.088 462.041 L 1751.088 462.041 L 1751.088 462.041 Q 1751.088 465.173 1752.132 467.609 L 1752.132 467.609 L 1752.132 467.609 Q 1753.176 470.045 1756.308 472.307 L 1756.308 472.307 L 1756.308 472.307 Q 1759.44 474.569 1764.834 477.164 L 1764.834 477.164 L 1764.834 477.164 Q 1770.228 479.759 1778.58 482.873 L 1778.58 482.873 L 1778.58 482.873 Q 1795.632 489.1 1806.768 495.155 L 1806.768 495.155 L 1806.768 495.155 Q 1817.904 501.21 1824.342 508.355 L 1824.342 508.355 L 1824.342 508.355 Q 1830.78 515.5 1833.39 524.214 L 1833.39 524.214 L 1833.39 524.214 Q 1836 532.928 1836 544.43 L 1836 544.43 L 1836 544.43 Q 1836 571.617 1815.642 585.559 L 1815.642 585.559 L 1815.642 585.559 Q 1795.284 599.501 1758.048 599.501 L 1758.048 599.501 L 1758.048 599.501 Q 1733.688 599.501 1717.506 595.325 L 1717.506 595.325 L 1717.506 595.325 Q 1701.324 591.149 1695.06 588.365 L 1695.06 588.365 L 1703.76 546.257 L 1703.76 546.257 Q 1716.984 551.477 1730.904 554.435 L 1730.904 554.435 L 1730.904 554.435 Q 1744.824 557.393 1758.396 557.393 Z  M 740.988 306.92 L 740.988 306.92 L 740.988 306.92 Q 682.176 306.92 651.378 274.208 L 651.378 274.208 L 651.378 274.208 Q 620.58 241.496 620.58 181.292 L 620.58 181.292 L 620.58 181.292 Q 620.58 151.364 629.976 127.874 L 629.976 127.874 L 629.976 127.874 Q 639.372 104.384 655.728 88.202 L 655.728 88.202 L 655.728 88.202 Q 672.084 72.02 694.704 63.668 L 694.704 63.668 L 694.704 63.668 Q 717.324 55.316 743.772 55.316 L 743.772 55.316 L 743.772 55.316 Q 759.084 55.316 771.612 57.578 L 771.612 57.578 L 771.612 57.578 Q 784.14 59.84 793.536 62.798 L 793.536 62.798 L 793.536 62.798 Q 802.932 65.756 809.196 68.888 L 809.196 68.888 L 809.196 68.888 Q 815.46 72.02 818.244 73.76 L 818.244 73.76 L 802.584 117.608 L 802.584 117.608 Q 791.448 111.692 776.658 107.516 L 776.658 107.516 L 776.658 107.516 Q 761.868 103.34 743.076 103.34 L 743.076 103.34 L 743.076 103.34 Q 730.548 103.34 718.542 107.516 L 718.542 107.516 L 718.542 107.516 Q 706.536 111.692 697.314 120.914 L 697.314 120.914 L 697.314 120.914 Q 688.092 130.136 682.524 144.752 L 682.524 144.752 L 682.524 144.752 Q 676.956 159.368 676.956 180.248 L 676.956 180.248 L 676.956 180.248 Q 676.956 196.952 680.61 211.394 L 680.61 211.394 L 680.61 211.394 Q 684.264 225.836 692.442 236.276 L 692.442 236.276 L 692.442 236.276 Q 700.62 246.716 713.844 252.806 L 713.844 252.806 L 713.844 252.806 Q 727.068 258.896 745.86 258.896 L 745.86 258.896 L 745.86 258.896 Q 757.692 258.896 767.088 257.504 L 767.088 257.504 L 767.088 257.504 Q 776.484 256.112 783.792 254.198 L 783.792 254.198 L 783.792 254.198 Q 791.1 252.284 796.668 249.848 L 796.668 249.848 L 796.668 249.848 Q 802.236 247.412 806.76 245.324 L 806.76 245.324 L 821.724 288.824 L 821.724 288.824 Q 810.24 295.784 789.36 301.352 L 789.36 301.352 L 789.36 301.352 Q 768.48 306.92 740.988 306.92 Z  M 923.432 262.724 L 916.124 305.528 L 916.124 305.528 Q 893.504 305.18 879.41 300.656 L 879.41 300.656 L 879.41 300.656 Q 865.316 296.132 857.138 287.954 L 857.138 287.954 L 857.138 287.954 Q 848.96 279.776 846.002 268.118 L 846.002 268.118 L 846.002 268.118 Q 843.044 256.46 843.044 241.844 L 843.044 241.844 L 843.044 40.352 L 894.896 32 L 894.896 231.404 L 894.896 231.404 Q 894.896 238.364 895.94 243.932 L 895.94 243.932 L 895.94 243.932 Q 896.984 249.5 899.942 253.328 L 899.942 253.328 L 899.942 253.328 Q 902.9 257.156 908.468 259.592 L 908.468 259.592 L 908.468 259.592 Q 914.036 262.028 923.432 262.724 L 923.432 262.724 Z  M 934.312 211.916 L 934.312 211.916 L 934.312 211.916 Q 934.312 187.556 941.794 169.286 L 941.794 169.286 L 941.794 169.286 Q 949.276 151.016 961.456 138.836 L 961.456 138.836 L 961.456 138.836 Q 973.636 126.656 989.47 120.392 L 989.47 120.392 L 989.47 120.392 Q 1005.304 114.128 1022.008 114.128 L 1022.008 114.128 L 1022.008 114.128 Q 1060.984 114.128 1083.604 137.966 L 1083.604 137.966 L 1083.604 137.966 Q 1106.224 161.804 1106.224 208.088 L 1106.224 208.088 L 1106.224 208.088 Q 1106.224 212.612 1105.876 218.006 L 1105.876 218.006 L 1105.876 218.006 Q 1105.528 223.4 1105.18 227.576 L 1105.18 227.576 L 987.556 227.576 L 987.556 227.576 Q 989.296 243.584 1002.52 252.98 L 1002.52 252.98 L 1002.52 252.98 Q 1015.744 262.376 1038.016 262.376 L 1038.016 262.376 L 1038.016 262.376 Q 1052.284 262.376 1066.03 259.766 L 1066.03 259.766 L 1066.03 259.766 Q 1079.776 257.156 1088.476 253.328 L 1088.476 253.328 L 1095.436 295.436 L 1095.436 295.436 Q 1091.26 297.524 1084.3 299.612 L 1084.3 299.612 L 1084.3 299.612 Q 1077.34 301.7 1068.814 303.266 L 1068.814 303.266 L 1068.814 303.266 Q 1060.288 304.832 1050.544 305.876 L 1050.544 305.876 L 1050.544 305.876 Q 1040.8 306.92 1031.056 306.92 L 1031.056 306.92 L 1031.056 306.92 Q 1006.348 306.92 988.078 299.612 L 988.078 299.612 L 988.078 299.612 Q 969.808 292.304 957.802 279.602 L 957.802 279.602 L 957.802 279.602 Q 945.796 266.9 940.054 249.5 L 940.054 249.5 L 940.054 249.5 Q 934.312 232.1 934.312 211.916 Z  M 987.556 192.08 L 1056.112 192.08 L 1056.112 192.08 Q 1055.764 185.468 1053.85 179.204 L 1053.85 179.204 L 1053.85 179.204 Q 1051.936 172.94 1047.934 168.068 L 1047.934 168.068 L 1047.934 168.068 Q 1043.932 163.196 1037.842 160.064 L 1037.842 160.064 L 1037.842 160.064 Q 1031.752 156.932 1022.704 156.932 L 1022.704 156.932 L 1022.704 156.932 Q 1014.004 156.932 1007.74 159.89 L 1007.74 159.89 L 1007.74 159.89 Q 1001.476 162.848 997.3 167.72 L 997.3 167.72 L 997.3 167.72 Q 993.124 172.592 990.862 179.03 L 990.862 179.03 L 990.862 179.03 Q 988.6 185.468 987.556 192.08 L 987.556 192.08 Z  M 1206.192 265.856 L 1206.192 265.856 L 1206.192 265.856 Q 1213.848 265.856 1220.808 265.508 L 1220.808 265.508 L 1220.808 265.508 Q 1227.768 265.16 1231.944 264.464 L 1231.944 264.464 L 1231.944 225.14 L 1231.944 225.14 Q 1228.812 224.444 1222.548 223.748 L 1222.548 223.748 L 1222.548 223.748 Q 1216.284 223.052 1211.064 223.052 L 1211.064 223.052 L 1211.064 223.052 Q 1203.756 223.052 1197.318 223.922 L 1197.318 223.922 L 1197.318 223.922 Q 1190.88 224.792 1186.008 227.228 L 1186.008 227.228 L 1186.008 227.228 Q 1181.136 229.664 1178.352 233.84 L 1178.352 233.84 L 1178.352 233.84 Q 1175.568 238.016 1175.568 244.28 L 1175.568 244.28 L 1175.568 244.28 Q 1175.568 256.46 1183.746 261.158 L 1183.746 261.158 L 1183.746 261.158 Q 1191.924 265.856 1206.192 265.856 Z  M 1202.016 114.128 L 1202.016 114.128 L 1202.016 114.128 Q 1224.984 114.128 1240.296 119.348 L 1240.296 119.348 L 1240.296 119.348 Q 1255.608 124.568 1264.83 134.312 L 1264.83 134.312 L 1264.83 134.312 Q 1274.052 144.056 1277.88 157.976 L 1277.88 157.976 L 1277.88 157.976 Q 1281.708 171.896 1281.708 188.948 L 1281.708 188.948 L 1281.708 296.828 L 1281.708 296.828 Q 1270.572 299.264 1250.736 302.57 L 1250.736 302.57 L 1250.736 302.57 Q 1230.9 305.876 1202.712 305.876 L 1202.712 305.876 L 1202.712 305.876 Q 1184.964 305.876 1170.522 302.744 L 1170.522 302.744 L 1170.522 302.744 Q 1156.08 299.612 1145.64 292.478 L 1145.64 292.478 L 1145.64 292.478 Q 1135.2 285.344 1129.632 273.86 L 1129.632 273.86 L 1129.632 273.86 Q 1124.064 262.376 1124.064 245.672 L 1124.064 245.672 L 1124.064 245.672 Q 1124.064 229.664 1130.502 218.528 L 1130.502 218.528 L 1130.502 218.528 Q 1136.94 207.392 1147.728 200.78 L 1147.728 200.78 L 1147.728 200.78 Q 1158.516 194.168 1172.436 191.21 L 1172.436 191.21 L 1172.436 191.21 Q 1186.356 188.252 1201.32 188.252 L 1201.32 188.252 L 1201.32 188.252 Q 1211.412 188.252 1219.242 189.122 L 1219.242 189.122 L 1219.242 189.122 Q 1227.072 189.992 1231.944 191.384 L 1231.944 191.384 L 1231.944 186.512 L 1231.944 186.512 Q 1231.944 173.288 1223.94 165.284 L 1223.94 165.284 L 1223.94 165.284 Q 1215.936 157.28 1196.1 157.28 L 1196.1 157.28 L 1196.1 157.28 Q 1182.876 157.28 1170 159.194 L 1170 159.194 L 1170 159.194 Q 1157.124 161.108 1147.728 164.588 L 1147.728 164.588 L 1141.116 122.828 L 1141.116 122.828 Q 1145.64 121.436 1152.426 119.87 L 1152.426 119.87 L 1152.426 119.87 Q 1159.212 118.304 1167.216 117.086 L 1167.216 117.086 L 1167.216 117.086 Q 1175.22 115.868 1184.094 114.998 L 1184.094 114.998 L 1184.094 114.998 Q 1192.968 114.128 1202.016 114.128 Z  M 1318.688 302.048 L 1318.688 125.264 L 1318.688 125.264 Q 1331.912 121.436 1352.792 118.13 L 1352.792 118.13 L 1352.792 118.13 Q 1373.672 114.824 1396.64 114.824 L 1396.64 114.824 L 1396.64 114.824 Q 1419.956 114.824 1435.442 120.914 L 1435.442 120.914 L 1435.442 120.914 Q 1450.928 127.004 1459.976 138.14 L 1459.976 138.14 L 1459.976 138.14 Q 1469.024 149.276 1472.852 164.588 L 1472.852 164.588 L 1472.852 164.588 Q 1476.68 179.9 1476.68 198.692 L 1476.68 198.692 L 1476.68 302.048 L 1424.828 302.048 L 1424.828 204.956 L 1424.828 204.956 Q 1424.828 179.9 1418.216 169.46 L 1418.216 169.46 L 1418.216 169.46 Q 1411.604 159.02 1393.508 159.02 L 1393.508 159.02 L 1393.508 159.02 Q 1387.94 159.02 1381.676 159.542 L 1381.676 159.542 L 1381.676 159.542 Q 1375.412 160.064 1370.54 160.76 L 1370.54 160.76 L 1370.54 302.048 L 1318.688 302.048 Z " fill-rule="evenodd" fill="rgb(154,33,83)"/><path d=" M 569.289 594.515 L -78.753 594.515 L -78.753 264.508 L -14.813 264.508 L -14.813 326.211 L -14.813 326.211 L 128.013 227.28 L 349.385 380.9 L 567.915 532.549 L 569.289 533.502 L 569.289 594.515 Z  M 368.359 -35.121 C 376.628 -36.526 385.126 -37.249 393.792 -37.249 C 478.095 -37.249 546.539 31.195 546.539 115.499 C 546.539 199.803 478.095 268.247 393.792 268.247 C 321.354 268.247 260.625 217.714 244.951 150.012 C 265.387 170.129 293.425 182.538 324.338 182.538 C 386.862 182.538 437.622 131.777 437.622 69.254 C 437.622 22.344 409.048 -17.945 368.359 -35.121 L 368.359 -35.121 Z " fill-rule="evenodd" fill="rgb(38,57,107)"/></g></svg>