<?xml version="1.0" encoding="utf-8"?>
<!-- Generator: Adobe Illustrator 13.0.0, SVG Export Plug-In . SVG Version: 6.00 Build 14948)  -->
<!DOCTYPE svg PUBLIC "-//W3C//DTD SVG 1.1//EN" "http://www.w3.org/Graphics/SVG/1.1/DTD/svg11.dtd">
<svg version="1.1" id="Layer_1" xmlns="http://www.w3.org/2000/svg" xmlns:xlink="http://www.w3.org/1999/xlink" x="0px" y="0px"
	 width="512px" height="512px" viewBox="0 0 512 512" enable-background="new 0 0 512 512" xml:space="preserve">
<path fill="#FCC72B" d="M256,38.753c109.301,0,199.736,80.729,214.978,185.8c12.716,0.034,25.858,0.77,39.354,2.241
	C495.829,99.164,387.506,0,256,0C127.484,0,21.092,94.708,2.792,218.137c10.839-3.416,25.49-10.069,42.793-16.408
	C69.691,108.004,154.756,38.753,256,38.753"/>
<path fill="#F69B1E" d="M256,77.506c88.605,0,162.12,64.567,176.089,149.22c12.436-1.442,25.423-2.202,38.889-2.173
	C455.736,119.477,365.301,38.753,256,38.753c-101.244,0-186.309,69.256-210.415,162.977c13.529-4.955,28.665-9.702,44.859-12.552
	C116.897,123.706,181.049,77.506,256,77.506"/>
<path fill="#F37A20" d="M134.404,187.165c24.019-42.329,69.454-70.906,121.596-70.906c69.59,0,127.281,50.879,137.955,117.464
	c11.99-3.082,24.74-5.443,38.134-7.001C418.12,142.073,344.605,77.506,256,77.506c-74.951,0-139.103,46.2-165.551,111.672
	C104.434,186.715,119.206,185.685,134.404,187.165"/>
<path fill="#EE4E24" d="M256,155.936c51.914,0,94.587,39.542,99.57,90.154c4.646-1.422,9.392-3.029,14.289-4.858
	c7.63-2.835,15.677-5.342,24.096-7.51C383.281,167.138,325.59,116.259,256,116.259c-52.142,0-97.577,28.577-121.596,70.906
	c13.238,1.287,26.801,4.49,40.441,10.326C193.02,172.325,222.589,155.936,256,155.936"/>
<path fill="#EB3B24" d="M174.778,315.487c-3.581-0.866-7.094-1.606-10.573-2.235C167.781,314.127,171.299,314.867,174.778,315.487"
	/>
<path fill="#EB3B24" d="M210.782,217.625c10.883-12.808,27.092-20.947,45.218-20.947c31.81,0,57.76,25.035,59.25,56.477
	c13.06-0.319,26.182-2.744,40.32-7.064c-4.983-50.617-47.656-90.154-99.57-90.154c-33.411,0-62.98,16.389-81.154,41.56
	c6.493,2.772,13.011,6.14,19.52,10.19C200.051,211.228,205.499,214.523,210.782,217.625"/>
<path fill="#ED2C25" d="M315.25,253.155c-1.49-31.442-27.44-56.477-59.25-56.477c-18.121,0-34.335,8.139-45.223,20.947
	C253.891,242.95,284.437,253.91,315.25,253.155"/>
<path fill="#EDCDB3" d="M473.247,256c0,5.293-0.203,10.548-0.571,15.75c14.874,5.361,27.488,10.616,36.992,13.321
	c0.213,0.058,0.44,0.116,0.658,0.179c1.093-9.6,1.674-19.36,1.674-29.25c0-9.88-0.581-19.621-1.669-29.211
	c-13.495-1.466-26.638-2.202-39.354-2.231C472.458,234.826,473.247,245.321,473.247,256"/>
<path fill="#EDCDB3" d="M41.54,290.81c-1.824-11.337-2.787-22.959-2.787-34.81c0-18.74,2.371-36.924,6.832-54.266
	c-17.303,6.333-31.954,12.987-42.793,16.403C0.963,230.495,0,243.134,0,256c0,12.479,0.914,24.745,2.637,36.75
	C15.973,291.429,28.969,290.79,41.54,290.81"/>
<path fill="#EAC5A7" d="M77.506,256c0-23.627,4.602-46.18,12.943-66.822c-16.199,2.85-31.335,7.597-44.864,12.552
	c-4.461,17.347-6.832,35.53-6.832,54.271c0,11.85,0.963,23.468,2.787,34.81c13.81,0,27.116,0.779,39.827,2.25
	C78.842,281.098,77.506,268.711,77.506,256"/>
<path fill="#EAC5A7" d="M432.089,226.726c1.573,9.522,2.405,19.306,2.405,29.274c0,1.408-0.024,2.812-0.059,4.209
	c13.839,3.165,26.72,7.384,38.24,11.541c0.368-5.202,0.571-10.457,0.571-15.75c0-10.679-0.789-21.174-2.27-31.442
	C457.512,224.529,444.524,225.284,432.089,226.726"/>
<path fill="#E7BC9A" d="M116.259,256c0-25.035,6.614-48.513,18.146-68.835c-15.198-1.48-29.971-0.45-43.96,2.013
	C82.107,209.82,77.506,232.373,77.506,256c0,12.711,1.341,25.098,3.861,37.06c14.99,1.728,29.153,4.413,42.339,7.94
	C118.9,286.871,116.259,271.75,116.259,256"/>
<path fill="#E7BC9A" d="M395.717,255.066c13.476,0.363,26.478,2.342,38.719,5.143c0.034-1.398,0.059-2.801,0.059-4.209
	c0-9.968-0.832-19.751-2.405-29.274c-13.394,1.548-26.144,3.915-38.134,6.997C395.068,240.681,395.668,247.808,395.717,255.066"/>
<path fill="#E4B48F" d="M355.57,246.09c0.319,3.261,0.493,6.561,0.493,9.91c0,1.055-0.048,2.09-0.082,3.14
	c13.524-3.285,26.85-4.422,39.735-4.074c-0.049-7.258-0.648-14.386-1.762-21.344c-8.419,2.168-16.466,4.674-24.096,7.51
	C364.962,243.062,360.216,244.668,355.57,246.09"/>
<path fill="#E4B48F" d="M164.205,313.251c3.479,0.629,6.992,1.369,10.573,2.235c0.29,0.053,0.58,0.102,0.87,0.15
	c-12.382-16.655-19.712-37.287-19.712-59.637c0-21.852,7.025-42.053,18.909-58.504c-13.641-5.84-27.203-9.043-40.441-10.331
	c-11.526,20.322-18.146,43.8-18.146,68.835c0,15.75,2.642,30.871,7.447,45c6.179,1.65,12.149,3.474,17.884,5.482
	C149.457,309.235,156.942,311.49,164.205,313.251"/>
<path fill="#E1AB83" d="M237.104,312.23c-23.496-7.897-40.427-30.078-40.427-56.23c0-14.637,5.313-28.03,14.104-38.375
	c-5.283-3.106-10.731-6.397-16.417-9.939c-6.509-4.055-13.026-7.417-19.52-10.19c-11.884,16.452-18.909,36.653-18.909,58.504
	c0,22.35,7.33,42.982,19.712,59.637C196.262,319.188,215.559,318.293,237.104,312.23"/>
<path fill="#E1AB83" d="M315.317,256c0,7.979-1.577,15.59-4.442,22.539c2.042-1.171,4.104-2.356,6.204-3.59
	c13.011-7.616,26.046-12.682,38.902-15.808c0.034-1.05,0.082-2.085,0.082-3.14c0-3.349-0.174-6.648-0.493-9.91
	c-14.139,4.321-27.261,6.745-40.32,7.064C315.288,254.099,315.317,255.047,315.317,256"/>
<path fill="#DEA378" d="M315.25,253.155c-30.813,0.755-61.359-10.205-104.473-35.53c-8.787,10.345-14.1,23.738-14.1,38.375
	c0,26.153,16.931,48.333,40.423,56.23c21.246-5.986,44.699-16.999,73.774-33.692c2.865-6.948,4.442-14.56,4.442-22.539
	C315.317,255.047,315.288,254.099,315.25,253.155"/>
<path fill="#C99563" d="M303.109,344.287c-14.047,7.505-30.077,11.777-47.109,11.777c-10.936,0-21.455-1.776-31.302-5.018
	c43.418,20.066,74.022,26.472,107.646,21.972c18.242-11.927,33.518-28.001,44.506-46.887c-1.688,0.562-3.29,1.127-4.713,1.688
	C350.736,336.24,336.56,345.666,303.109,344.287"/>
<path fill="#C38850" d="M303.109,344.287c-24.75-1.016-60.048-7.95-116.642-25.577c-3.647-1.142-7.219-2.1-10.761-2.981
	c6.696,8.98,14.864,16.8,24.145,23.105c8.764,4.529,17.014,8.583,24.847,12.213c9.847,3.242,20.366,5.018,31.302,5.018
	C273.032,356.064,289.063,351.792,303.109,344.287"/>
<path fill="#DDBD9B" d="M509.668,285.071c-9.504-2.705-22.118-7.959-36.992-13.321c-1.079,14.976-3.658,29.521-7.611,43.504
	c-3.469,12.276-8.003,24.111-13.471,35.395c13.554-0.624,27.663-0.571,42.237,0.237c3.866-9.697,7.166-19.698,9.847-29.942
	c3.033-11.598,5.26-23.516,6.648-35.695C510.108,285.187,509.881,285.129,509.668,285.071"/>
<path fill="#DDBD9B" d="M41.54,290.81c-12.571-0.02-25.567,0.619-38.903,1.94c2.41,16.737,6.431,32.941,11.913,48.469
	c10.354-3.406,22.829-7.901,36.856-12.019C46.998,316.871,43.674,304.039,41.54,290.81"/>
<path fill="#D6AE86" d="M88.558,317.959c-2.976-8.047-5.386-16.36-7.19-24.9c-12.711-1.471-26.018-2.25-39.827-2.25
	c2.134,13.229,5.458,26.061,9.866,38.39c6.827-2.013,14.018-3.929,21.513-5.589c5.386-1.19,10.931-2.245,16.602-3.111
	C89.201,319.653,88.872,318.811,88.558,317.959"/>
<path fill="#D6AE86" d="M434.436,260.209c-0.454,19.771-4.127,38.753-10.519,56.438c-5.057,13.999-11.807,27.184-20.018,39.314
	c14.907-2.729,30.87-4.534,47.694-5.313c5.468-11.284,10.002-23.119,13.471-35.395c3.953-13.984,6.532-28.529,7.611-43.504
	C461.155,267.593,448.274,263.374,434.436,260.209"/>
<path fill="#D0A175" d="M395.717,255.066c0,0.314,0.02,0.624,0.02,0.934c0,25.567-6.9,49.509-18.886,70.132
	c-10.988,18.885-26.264,34.955-44.506,46.887c11.894-1.587,24.164-4.529,37.515-8.729c10.592-3.319,21.972-6.125,34.04-8.327
	c8.211-12.131,14.961-25.316,20.018-39.314c6.392-17.686,10.064-36.667,10.519-56.438
	C422.194,257.408,409.192,255.429,395.717,255.066"/>
<path fill="#D0A175" d="M127.461,310.89c-1.38-3.237-2.618-6.542-3.755-9.891c-13.186-3.527-27.349-6.212-42.339-7.94
	c1.805,8.54,4.215,16.853,7.195,24.9c0.31,0.852,0.634,1.693,0.958,2.54c13.21-2.013,27.126-2.971,41.453-2.09
	C129.734,315.937,128.549,313.435,127.461,310.89"/>
<path fill="#DEB877" d="M174.778,315.487c0.31,0.072,0.619,0.16,0.929,0.242c-0.02-0.039-0.039-0.063-0.059-0.092
	C175.358,315.588,175.068,315.54,174.778,315.487"/>
<path fill="#C99563" d="M355.981,259.14c-1.137,36.9-22.233,68.768-52.872,85.146c33.45,1.379,47.627-8.042,69.028-16.466
	c1.423-0.561,3.024-1.127,4.713-1.688c11.985-20.623,18.886-44.564,18.886-70.132c0-0.31-0.02-0.619-0.02-0.934
	C382.831,254.718,369.506,255.855,355.981,259.14"/>
<path fill="#C99563" d="M175.707,315.729c-0.31-0.082-0.619-0.169-0.929-0.242c-3.479-0.62-6.997-1.36-10.573-2.235
	c-7.263-1.762-14.748-4.016-22.615-6.77c-5.734-2.008-11.705-3.832-17.884-5.482c1.137,3.349,2.375,6.653,3.755,9.891
	c1.088,2.545,2.273,5.046,3.513,7.519c20.598,1.272,42.033,6.339,63.392,17.569c1.857,0.982,3.677,1.911,5.486,2.855
	C190.571,332.528,182.403,324.709,175.707,315.729"/>
<path fill="#C38850" d="M303.109,344.287c30.639-16.374,51.735-48.247,52.872-85.146c-12.856,3.126-25.892,8.192-38.902,15.808
	c-2.101,1.234-4.162,2.419-6.204,3.59c-8.874,21.581-30.096,36.779-54.875,36.779c-6.609,0-12.958-1.089-18.899-3.087
	c-21.542,6.063-40.834,6.958-61.452,3.406c0.02,0.029,0.039,0.053,0.059,0.092c3.542,0.881,7.113,1.839,10.761,2.981
	C243.062,336.336,278.359,343.271,303.109,344.287"/>
<path fill="#BD7E40" d="M256,315.317c24.779,0,46.001-15.198,54.875-36.779c-29.075,16.693-52.528,27.706-73.771,33.692
	C243.042,314.229,249.391,315.317,256,315.317"/>
<path fill="#006967" d="M262.387,395.582c19.752-0.896,38.429-5.884,55.215-14.134C296.238,387.563,278.045,392.189,262.387,395.582
	"/>
<path fill="#518787" d="M451.594,350.649c-4.95,10.205-10.674,19.959-17.1,29.197c15.987-4.413,32.574-7.137,49.03-6.417
	c3.784-7.321,7.224-14.84,10.307-22.543C479.257,350.079,465.147,350.025,451.594,350.649"/>
<path fill="#347C7C" d="M116.123,366.888c-11.051-13.926-20.065-29.541-26.603-46.389c-5.671,0.866-11.216,1.921-16.602,3.111
	c-6.973,2.879-13.65,6.097-20.066,9.499c3.891,10.253,8.536,20.124,13.858,29.559C82.843,359.731,99.333,360.486,116.123,366.888"/>
<path fill="#347C7C" d="M403.899,355.962c-3.9,5.748-8.124,11.264-12.644,16.509c-17.405,20.192-39.257,36.44-64.025,47.226
	c5.008-1.011,9.735-2.192,14.152-3.508c20.7-6.184,53.212-24.624,89.086-35.202c1.34-0.396,2.68-0.779,4.025-1.142
	c6.421-9.237,12.149-18.992,17.1-29.197C434.77,351.428,418.807,353.233,403.899,355.962"/>
<path fill="#007271" d="M369.859,364.29c-13.351,4.2-25.621,7.142-37.515,8.729c-4.728,3.092-9.644,5.913-14.743,8.419
	c-16.786,8.26-35.463,13.248-55.215,14.144c-2.119,0.092-4.248,0.165-6.387,0.165c-54.745,0-102.096-31.495-125.026-77.337
	c-14.327-0.88-28.243,0.078-41.453,2.09c6.537,16.848,15.552,32.463,26.603,46.389c6.881,2.618,13.801,6.165,20.777,10.81
	c14.71,9.803,29.584,17.753,44.342,24.14l0,0c54.909,23.733,108.275,25.524,145.988,17.859
	c24.769-10.785,46.62-27.034,64.025-47.226c4.52-5.245,8.743-10.761,12.644-16.509C391.831,358.164,380.451,360.97,369.859,364.29
	 M193.62,403.236c0.687,0.043,1.384,0.082,2.09,0.111C195.004,403.318,194.307,403.28,193.62,403.236"/>
<path fill="#006967" d="M332.345,373.019c-33.624,4.5-64.229-1.906-107.646-21.972c-8.894-2.938-17.25-7.055-24.847-12.213
	c-1.81-0.944-3.629-1.873-5.486-2.855c-21.358-11.23-42.794-16.297-63.392-17.569c22.931,45.842,70.286,77.337,125.026,77.337
	c2.148,0,4.268-0.073,6.387-0.165c15.658-3.392,33.852-8.018,55.215-14.134C322.701,378.932,327.617,376.11,332.345,373.019"/>
<path fill="#71696A" d="M224.698,351.046c-7.833-3.629-16.083-7.684-24.847-12.213C207.448,343.991,215.805,348.109,224.698,351.046
	"/>
<path fill="#518787" d="M52.853,333.109c-0.493-1.297-0.978-2.599-1.441-3.91c-14.032,4.118-26.507,8.613-36.861,12.029
	c0.891,2.531,1.819,5.061,2.797,7.558c3.552,9.145,7.636,18.034,12.174,26.632c12.165-5.884,24.566-10.452,37.19-12.75
	C61.389,353.233,56.743,343.362,52.853,333.109"/>
<path fill="#347C7C" d="M51.406,329.2c0.469,1.311,0.953,2.613,1.446,3.91c6.416-3.402,13.094-6.62,20.066-9.499
	C65.424,325.271,58.233,327.187,51.406,329.2"/>
<path fill="#443630" d="M433.066,381.893c0.484-0.682,0.953-1.364,1.428-2.046c-1.346,0.363-2.686,0.745-4.025,1.142
	C431.339,381.288,432.205,381.588,433.066,381.893"/>
<path fill="#50433D" d="M434.494,379.846c-0.475,0.682-0.943,1.364-1.428,2.046c-14.917,20.947-33.459,39.126-54.711,53.637
	c-34.848,23.797-76.974,37.718-122.355,37.718c-52.432,0-100.528-18.581-138.058-49.5c-16.49-13.587-30.929-29.559-42.817-47.385
	c-2.966-4.452-5.772-9.024-8.414-13.694c-12.624,2.298-25.025,6.866-37.19,12.75c0.339,0.629,0.658,1.268,0.997,1.892
	c11.235,20.835,25.277,39.924,41.603,56.782c42.678,44.051,101.037,72.813,166.078,77.279C244.082,511.777,250.015,512,256,512
	c75.832,0,143.951-32.98,190.828-85.369c1.359-1.524,2.709-3.073,4.04-4.631c6.445-7.553,12.46-15.489,18-23.768
	c5.332-7.959,10.229-16.243,14.656-24.803C467.068,372.709,450.481,375.433,434.494,379.846"/>
<polygon fill="#347C7C" points="424.309,326.146 428.339,333.119 420.278,333.119 "/>
<polygon fill="#347C7C" points="424.309,330.69 432.694,341.151 415.913,341.151 "/>
<polygon fill="#347C7C" points="424.309,337.033 436.889,350.993 411.719,350.993 "/>
<polygon fill="#347C7C" points="424.309,342.327 441.089,359.771 407.519,359.771 "/>
<polygon fill="#D6AE86" points="451.255,240.352 455.208,247.198 447.307,247.198 "/>
<polygon fill="#D6AE86" points="451.255,244.808 459.485,255.081 443.02,255.081 "/>
<polygon fill="#D6AE86" points="451.255,251.041 463.608,264.734 438.907,264.734 "/>
<polygon fill="#D6AE86" points="451.255,256.232 467.727,273.352 434.789,273.352 "/>
<polygon fill="#347C7C" points="69.125,297.313 73.078,304.159 65.172,304.159 "/>
<polygon fill="#347C7C" points="69.125,301.764 77.355,312.037 60.895,312.037 "/>
<polygon fill="#347C7C" points="69.125,308.001 81.479,321.69 56.772,321.69 "/>
<polygon fill="#347C7C" points="69.125,313.188 85.592,330.313 52.659,330.313 "/>
<path fill="#443630" d="M430.469,380.988c-35.874,10.578-68.386,29.018-89.086,35.202c-4.417,1.316-9.145,2.497-14.152,3.508
	c-14.681,2.99-31.742,4.529-50.337,3.91l-22.253-23.144h16.471l-34.408-38.153h18.146l-24.953-31.122h8.037l-15.619-27.053
	l-15.62,27.053h8.042l-24.948,31.122h18.141l-33.063,36.663c-12.658-5.854-25.374-12.885-37.965-21.275
	c-6.973-4.645-13.896-8.192-20.777-10.81c-16.79-6.402-33.28-7.157-49.407-4.22c2.637,4.669,5.443,9.242,8.414,13.694
	c11.884,17.826,26.322,33.798,42.808,47.385c37.534,30.919,85.631,49.5,138.063,49.5c45.382,0,87.508-13.921,122.355-37.718
	c21.252-14.511,39.794-32.69,54.711-53.637C432.205,381.588,431.339,381.288,430.469,380.988 M189.991,400.463l-3.455,3.595
	c-1.767-0.721-3.527-1.461-5.294-2.221c-1.025-0.445-2.052-0.91-3.077-1.375H189.991z"/>
</svg>
