<?xml version="1.0" standalone="no"?><!-- Generator: Gravit.io --><svg xmlns="http://www.w3.org/2000/svg" xmlns:xlink="http://www.w3.org/1999/xlink" style="isolation:isolate" viewBox="0 0 512 512" width="512" height="512"><defs><clipPath id="_clipPath_658WgfKdI09tacb1At3qcN2PUP9uL47l"><rect width="512" height="512"/></clipPath></defs><g clip-path="url(#_clipPath_658WgfKdI09tacb1At3qcN2PUP9uL47l)"><path d=" M 511.843 512 L 1 512 L 1 251.859 L 51.403 251.859 L 51.403 300.499 L 51.403 300.499 L 163.992 222.513 L 338.496 343.61 L 510.76 463.153 L 511.843 463.153 L 511.843 463.904 L 513 464.707 L 511.843 464.707 L 511.843 512 Z  M 353.453 15.665 C 359.971 14.558 366.67 13.988 373.501 13.988 C 439.957 13.988 493.91 67.941 493.91 134.397 C 493.91 200.853 439.957 254.806 373.501 254.806 C 316.399 254.806 268.528 214.972 256.172 161.603 C 272.282 177.461 294.384 187.243 318.752 187.243 C 368.038 187.243 408.053 147.229 408.053 97.943 C 408.053 60.964 385.527 29.205 353.453 15.665 L 353.453 15.665 Z " fill-rule="evenodd" fill="rgb(38,57,107)"/></g></svg>