<!-- Generated by IcoMoon.io -->
<svg version="1.1" xmlns="http://www.w3.org/2000/svg" width="180" height="180" viewBox="0 0 180 180">
<title>yin-yang</title>
<path d="M90 180c-49.706 0-90-40.294-90-90s40.294-90 90-90v0c49.706 0 90 40.294 90 90s-40.294 90-90 90v0zM90 18c-39.765 0-72 32.235-72 72s32.235 72 72 72v0c-19.882 0-36-16.118-36-36s16.118-36 36-36v0c19.882 0 36-16.118 36-36s-16.118-36-36-36v0zM90 135c4.971 0 9-4.029 9-9s-4.029-9-9-9v0c-4.971 0-9 4.029-9 9s4.029 9 9 9v0zM90 63c-4.971 0-9-4.029-9-9s4.029-9 9-9v0c4.971 0 9 4.029 9 9s-4.029 9-9 9v0z"></path>
</svg>
